<?xml version="1.0" encoding="utf-8" standalone="no"?>
<!DOCTYPE svg PUBLIC "-//W3C//DTD SVG 1.1//EN"
  "http://www.w3.org/Graphics/SVG/1.1/DTD/svg11.dtd">
<svg xmlns:xlink="http://www.w3.org/1999/xlink" width="720pt" height="576pt" viewBox="0 0 720 576" xmlns="http://www.w3.org/2000/svg" version="1.1">
 <metadata>
  <rdf:RDF xmlns:dc="http://purl.org/dc/elements/1.1/" xmlns:cc="http://creativecommons.org/ns#" xmlns:rdf="http://www.w3.org/1999/02/22-rdf-syntax-ns#">
   <cc:Work>
    <dc:type rdf:resource="http://purl.org/dc/dcmitype/StillImage"/>
    <dc:date>2025-04-27T11:27:17.527149</dc:date>
    <dc:format>image/svg+xml</dc:format>
    <dc:creator>
     <cc:Agent>
      <dc:title>Matplotlib v3.10.0, https://matplotlib.org/</dc:title>
     </cc:Agent>
    </dc:creator>
   </cc:Work>
  </rdf:RDF>
 </metadata>
 <defs>
  <style type="text/css">*{stroke-linejoin: round; stroke-linecap: butt}</style>
 </defs>
 <g id="figure_1">
  <g id="patch_1">
   <path d="M 0 576 
L 720 576 
L 720 0 
L 0 0 
z
" style="fill: #ffffff"/>
  </g>
  <g id="axes_1">
   <g id="patch_2">
    <path d="M 54.47 527.56 
L 709.2 527.56 
L 709.2 10.8 
L 54.47 10.8 
z
" style="fill: #ffffff"/>
   </g>
   <g id="matplotlib.axis_1">
    <g id="xtick_1">
     <g id="line2d_1">
      <defs>
       <path id="md6d48bf6eb" d="M 0 0 
L 0 3.5 
" style="stroke: #000000; stroke-width: 0.8"/>
      </defs>
      <g>
       <use xlink:href="#md6d48bf6eb" x="84.230455" y="527.56" style="stroke: #000000; stroke-width: 0.8"/>
      </g>
     </g>
     <g id="text_1">
      <!-- 0.0 -->
      <g transform="translate(74.68858 543.678125) scale(0.12 -0.12)">
       <defs>
        <path id="DejaVuSans-30" d="M 2034 4250 
Q 1547 4250 1301 3770 
Q 1056 3291 1056 2328 
Q 1056 1369 1301 889 
Q 1547 409 2034 409 
Q 2525 409 2770 889 
Q 3016 1369 3016 2328 
Q 3016 3291 2770 3770 
Q 2525 4250 2034 4250 
z
M 2034 4750 
Q 2819 4750 3233 4129 
Q 3647 3509 3647 2328 
Q 3647 1150 3233 529 
Q 2819 -91 2034 -91 
Q 1250 -91 836 529 
Q 422 1150 422 2328 
Q 422 3509 836 4129 
Q 1250 4750 2034 4750 
z
" transform="scale(0.015625)"/>
        <path id="DejaVuSans-2e" d="M 684 794 
L 1344 794 
L 1344 0 
L 684 0 
L 684 794 
z
" transform="scale(0.015625)"/>
       </defs>
       <use xlink:href="#DejaVuSans-30"/>
       <use xlink:href="#DejaVuSans-2e" transform="translate(63.623047 0)"/>
       <use xlink:href="#DejaVuSans-30" transform="translate(95.410156 0)"/>
      </g>
     </g>
    </g>
    <g id="xtick_2">
     <g id="line2d_2">
      <g>
       <use xlink:href="#md6d48bf6eb" x="203.272273" y="527.56" style="stroke: #000000; stroke-width: 0.8"/>
      </g>
     </g>
     <g id="text_2">
      <!-- 0.2 -->
      <g transform="translate(193.730398 543.678125) scale(0.12 -0.12)">
       <defs>
        <path id="DejaVuSans-32" d="M 1228 531 
L 3431 531 
L 3431 0 
L 469 0 
L 469 531 
Q 828 903 1448 1529 
Q 2069 2156 2228 2338 
Q 2531 2678 2651 2914 
Q 2772 3150 2772 3378 
Q 2772 3750 2511 3984 
Q 2250 4219 1831 4219 
Q 1534 4219 1204 4116 
Q 875 4013 500 3803 
L 500 4441 
Q 881 4594 1212 4672 
Q 1544 4750 1819 4750 
Q 2544 4750 2975 4387 
Q 3406 4025 3406 3419 
Q 3406 3131 3298 2873 
Q 3191 2616 2906 2266 
Q 2828 2175 2409 1742 
Q 1991 1309 1228 531 
z
" transform="scale(0.015625)"/>
       </defs>
       <use xlink:href="#DejaVuSans-30"/>
       <use xlink:href="#DejaVuSans-2e" transform="translate(63.623047 0)"/>
       <use xlink:href="#DejaVuSans-32" transform="translate(95.410156 0)"/>
      </g>
     </g>
    </g>
    <g id="xtick_3">
     <g id="line2d_3">
      <g>
       <use xlink:href="#md6d48bf6eb" x="322.314091" y="527.56" style="stroke: #000000; stroke-width: 0.8"/>
      </g>
     </g>
     <g id="text_3">
      <!-- 0.4 -->
      <g transform="translate(312.772216 543.678125) scale(0.12 -0.12)">
       <defs>
        <path id="DejaVuSans-34" d="M 2419 4116 
L 825 1625 
L 2419 1625 
L 2419 4116 
z
M 2253 4666 
L 3047 4666 
L 3047 1625 
L 3713 1625 
L 3713 1100 
L 3047 1100 
L 3047 0 
L 2419 0 
L 2419 1100 
L 313 1100 
L 313 1709 
L 2253 4666 
z
" transform="scale(0.015625)"/>
       </defs>
       <use xlink:href="#DejaVuSans-30"/>
       <use xlink:href="#DejaVuSans-2e" transform="translate(63.623047 0)"/>
       <use xlink:href="#DejaVuSans-34" transform="translate(95.410156 0)"/>
      </g>
     </g>
    </g>
    <g id="xtick_4">
     <g id="line2d_4">
      <g>
       <use xlink:href="#md6d48bf6eb" x="441.355909" y="527.56" style="stroke: #000000; stroke-width: 0.8"/>
      </g>
     </g>
     <g id="text_4">
      <!-- 0.6 -->
      <g transform="translate(431.814034 543.678125) scale(0.12 -0.12)">
       <defs>
        <path id="DejaVuSans-36" d="M 2113 2584 
Q 1688 2584 1439 2293 
Q 1191 2003 1191 1497 
Q 1191 994 1439 701 
Q 1688 409 2113 409 
Q 2538 409 2786 701 
Q 3034 994 3034 1497 
Q 3034 2003 2786 2293 
Q 2538 2584 2113 2584 
z
M 3366 4563 
L 3366 3988 
Q 3128 4100 2886 4159 
Q 2644 4219 2406 4219 
Q 1781 4219 1451 3797 
Q 1122 3375 1075 2522 
Q 1259 2794 1537 2939 
Q 1816 3084 2150 3084 
Q 2853 3084 3261 2657 
Q 3669 2231 3669 1497 
Q 3669 778 3244 343 
Q 2819 -91 2113 -91 
Q 1303 -91 875 529 
Q 447 1150 447 2328 
Q 447 3434 972 4092 
Q 1497 4750 2381 4750 
Q 2619 4750 2861 4703 
Q 3103 4656 3366 4563 
z
" transform="scale(0.015625)"/>
       </defs>
       <use xlink:href="#DejaVuSans-30"/>
       <use xlink:href="#DejaVuSans-2e" transform="translate(63.623047 0)"/>
       <use xlink:href="#DejaVuSans-36" transform="translate(95.410156 0)"/>
      </g>
     </g>
    </g>
    <g id="xtick_5">
     <g id="line2d_5">
      <g>
       <use xlink:href="#md6d48bf6eb" x="560.397727" y="527.56" style="stroke: #000000; stroke-width: 0.8"/>
      </g>
     </g>
     <g id="text_5">
      <!-- 0.8 -->
      <g transform="translate(550.855852 543.678125) scale(0.12 -0.12)">
       <defs>
        <path id="DejaVuSans-38" d="M 2034 2216 
Q 1584 2216 1326 1975 
Q 1069 1734 1069 1313 
Q 1069 891 1326 650 
Q 1584 409 2034 409 
Q 2484 409 2743 651 
Q 3003 894 3003 1313 
Q 3003 1734 2745 1975 
Q 2488 2216 2034 2216 
z
M 1403 2484 
Q 997 2584 770 2862 
Q 544 3141 544 3541 
Q 544 4100 942 4425 
Q 1341 4750 2034 4750 
Q 2731 4750 3128 4425 
Q 3525 4100 3525 3541 
Q 3525 3141 3298 2862 
Q 3072 2584 2669 2484 
Q 3125 2378 3379 2068 
Q 3634 1759 3634 1313 
Q 3634 634 3220 271 
Q 2806 -91 2034 -91 
Q 1263 -91 848 271 
Q 434 634 434 1313 
Q 434 1759 690 2068 
Q 947 2378 1403 2484 
z
M 1172 3481 
Q 1172 3119 1398 2916 
Q 1625 2713 2034 2713 
Q 2441 2713 2670 2916 
Q 2900 3119 2900 3481 
Q 2900 3844 2670 4047 
Q 2441 4250 2034 4250 
Q 1625 4250 1398 4047 
Q 1172 3844 1172 3481 
z
" transform="scale(0.015625)"/>
       </defs>
       <use xlink:href="#DejaVuSans-30"/>
       <use xlink:href="#DejaVuSans-2e" transform="translate(63.623047 0)"/>
       <use xlink:href="#DejaVuSans-38" transform="translate(95.410156 0)"/>
      </g>
     </g>
    </g>
    <g id="xtick_6">
     <g id="line2d_6">
      <g>
       <use xlink:href="#md6d48bf6eb" x="679.439545" y="527.56" style="stroke: #000000; stroke-width: 0.8"/>
      </g>
     </g>
     <g id="text_6">
      <!-- 1.0 -->
      <g transform="translate(669.89767 543.678125) scale(0.12 -0.12)">
       <defs>
        <path id="DejaVuSans-31" d="M 794 531 
L 1825 531 
L 1825 4091 
L 703 3866 
L 703 4441 
L 1819 4666 
L 2450 4666 
L 2450 531 
L 3481 531 
L 3481 0 
L 794 0 
L 794 531 
z
" transform="scale(0.015625)"/>
       </defs>
       <use xlink:href="#DejaVuSans-31"/>
       <use xlink:href="#DejaVuSans-2e" transform="translate(63.623047 0)"/>
       <use xlink:href="#DejaVuSans-30" transform="translate(95.410156 0)"/>
      </g>
     </g>
    </g>
    <g id="text_7">
     <!-- False Positive Rate -->
     <g transform="translate(316.782031 560.811562) scale(0.14 -0.14)">
      <defs>
       <path id="DejaVuSans-46" d="M 628 4666 
L 3309 4666 
L 3309 4134 
L 1259 4134 
L 1259 2759 
L 3109 2759 
L 3109 2228 
L 1259 2228 
L 1259 0 
L 628 0 
L 628 4666 
z
" transform="scale(0.015625)"/>
       <path id="DejaVuSans-61" d="M 2194 1759 
Q 1497 1759 1228 1600 
Q 959 1441 959 1056 
Q 959 750 1161 570 
Q 1363 391 1709 391 
Q 2188 391 2477 730 
Q 2766 1069 2766 1631 
L 2766 1759 
L 2194 1759 
z
M 3341 1997 
L 3341 0 
L 2766 0 
L 2766 531 
Q 2569 213 2275 61 
Q 1981 -91 1556 -91 
Q 1019 -91 701 211 
Q 384 513 384 1019 
Q 384 1609 779 1909 
Q 1175 2209 1959 2209 
L 2766 2209 
L 2766 2266 
Q 2766 2663 2505 2880 
Q 2244 3097 1772 3097 
Q 1472 3097 1187 3025 
Q 903 2953 641 2809 
L 641 3341 
Q 956 3463 1253 3523 
Q 1550 3584 1831 3584 
Q 2591 3584 2966 3190 
Q 3341 2797 3341 1997 
z
" transform="scale(0.015625)"/>
       <path id="DejaVuSans-6c" d="M 603 4863 
L 1178 4863 
L 1178 0 
L 603 0 
L 603 4863 
z
" transform="scale(0.015625)"/>
       <path id="DejaVuSans-73" d="M 2834 3397 
L 2834 2853 
Q 2591 2978 2328 3040 
Q 2066 3103 1784 3103 
Q 1356 3103 1142 2972 
Q 928 2841 928 2578 
Q 928 2378 1081 2264 
Q 1234 2150 1697 2047 
L 1894 2003 
Q 2506 1872 2764 1633 
Q 3022 1394 3022 966 
Q 3022 478 2636 193 
Q 2250 -91 1575 -91 
Q 1294 -91 989 -36 
Q 684 19 347 128 
L 347 722 
Q 666 556 975 473 
Q 1284 391 1588 391 
Q 1994 391 2212 530 
Q 2431 669 2431 922 
Q 2431 1156 2273 1281 
Q 2116 1406 1581 1522 
L 1381 1569 
Q 847 1681 609 1914 
Q 372 2147 372 2553 
Q 372 3047 722 3315 
Q 1072 3584 1716 3584 
Q 2034 3584 2315 3537 
Q 2597 3491 2834 3397 
z
" transform="scale(0.015625)"/>
       <path id="DejaVuSans-65" d="M 3597 1894 
L 3597 1613 
L 953 1613 
Q 991 1019 1311 708 
Q 1631 397 2203 397 
Q 2534 397 2845 478 
Q 3156 559 3463 722 
L 3463 178 
Q 3153 47 2828 -22 
Q 2503 -91 2169 -91 
Q 1331 -91 842 396 
Q 353 884 353 1716 
Q 353 2575 817 3079 
Q 1281 3584 2069 3584 
Q 2775 3584 3186 3129 
Q 3597 2675 3597 1894 
z
M 3022 2063 
Q 3016 2534 2758 2815 
Q 2500 3097 2075 3097 
Q 1594 3097 1305 2825 
Q 1016 2553 972 2059 
L 3022 2063 
z
" transform="scale(0.015625)"/>
       <path id="DejaVuSans-20" transform="scale(0.015625)"/>
       <path id="DejaVuSans-50" d="M 1259 4147 
L 1259 2394 
L 2053 2394 
Q 2494 2394 2734 2622 
Q 2975 2850 2975 3272 
Q 2975 3691 2734 3919 
Q 2494 4147 2053 4147 
L 1259 4147 
z
M 628 4666 
L 2053 4666 
Q 2838 4666 3239 4311 
Q 3641 3956 3641 3272 
Q 3641 2581 3239 2228 
Q 2838 1875 2053 1875 
L 1259 1875 
L 1259 0 
L 628 0 
L 628 4666 
z
" transform="scale(0.015625)"/>
       <path id="DejaVuSans-6f" d="M 1959 3097 
Q 1497 3097 1228 2736 
Q 959 2375 959 1747 
Q 959 1119 1226 758 
Q 1494 397 1959 397 
Q 2419 397 2687 759 
Q 2956 1122 2956 1747 
Q 2956 2369 2687 2733 
Q 2419 3097 1959 3097 
z
M 1959 3584 
Q 2709 3584 3137 3096 
Q 3566 2609 3566 1747 
Q 3566 888 3137 398 
Q 2709 -91 1959 -91 
Q 1206 -91 779 398 
Q 353 888 353 1747 
Q 353 2609 779 3096 
Q 1206 3584 1959 3584 
z
" transform="scale(0.015625)"/>
       <path id="DejaVuSans-69" d="M 603 3500 
L 1178 3500 
L 1178 0 
L 603 0 
L 603 3500 
z
M 603 4863 
L 1178 4863 
L 1178 4134 
L 603 4134 
L 603 4863 
z
" transform="scale(0.015625)"/>
       <path id="DejaVuSans-74" d="M 1172 4494 
L 1172 3500 
L 2356 3500 
L 2356 3053 
L 1172 3053 
L 1172 1153 
Q 1172 725 1289 603 
Q 1406 481 1766 481 
L 2356 481 
L 2356 0 
L 1766 0 
Q 1100 0 847 248 
Q 594 497 594 1153 
L 594 3053 
L 172 3053 
L 172 3500 
L 594 3500 
L 594 4494 
L 1172 4494 
z
" transform="scale(0.015625)"/>
       <path id="DejaVuSans-76" d="M 191 3500 
L 800 3500 
L 1894 563 
L 2988 3500 
L 3597 3500 
L 2284 0 
L 1503 0 
L 191 3500 
z
" transform="scale(0.015625)"/>
       <path id="DejaVuSans-52" d="M 2841 2188 
Q 3044 2119 3236 1894 
Q 3428 1669 3622 1275 
L 4263 0 
L 3584 0 
L 2988 1197 
Q 2756 1666 2539 1819 
Q 2322 1972 1947 1972 
L 1259 1972 
L 1259 0 
L 628 0 
L 628 4666 
L 2053 4666 
Q 2853 4666 3247 4331 
Q 3641 3997 3641 3322 
Q 3641 2881 3436 2590 
Q 3231 2300 2841 2188 
z
M 1259 4147 
L 1259 2491 
L 2053 2491 
Q 2509 2491 2742 2702 
Q 2975 2913 2975 3322 
Q 2975 3731 2742 3939 
Q 2509 4147 2053 4147 
L 1259 4147 
z
" transform="scale(0.015625)"/>
      </defs>
      <use xlink:href="#DejaVuSans-46"/>
      <use xlink:href="#DejaVuSans-61" transform="translate(48.394531 0)"/>
      <use xlink:href="#DejaVuSans-6c" transform="translate(109.673828 0)"/>
      <use xlink:href="#DejaVuSans-73" transform="translate(137.457031 0)"/>
      <use xlink:href="#DejaVuSans-65" transform="translate(189.556641 0)"/>
      <use xlink:href="#DejaVuSans-20" transform="translate(251.080078 0)"/>
      <use xlink:href="#DejaVuSans-50" transform="translate(282.867188 0)"/>
      <use xlink:href="#DejaVuSans-6f" transform="translate(339.544922 0)"/>
      <use xlink:href="#DejaVuSans-73" transform="translate(400.726562 0)"/>
      <use xlink:href="#DejaVuSans-69" transform="translate(452.826172 0)"/>
      <use xlink:href="#DejaVuSans-74" transform="translate(480.609375 0)"/>
      <use xlink:href="#DejaVuSans-69" transform="translate(519.818359 0)"/>
      <use xlink:href="#DejaVuSans-76" transform="translate(547.601562 0)"/>
      <use xlink:href="#DejaVuSans-65" transform="translate(606.78125 0)"/>
      <use xlink:href="#DejaVuSans-20" transform="translate(668.304688 0)"/>
      <use xlink:href="#DejaVuSans-52" transform="translate(700.091797 0)"/>
      <use xlink:href="#DejaVuSans-61" transform="translate(767.324219 0)"/>
      <use xlink:href="#DejaVuSans-74" transform="translate(828.603516 0)"/>
      <use xlink:href="#DejaVuSans-65" transform="translate(867.8125 0)"/>
     </g>
    </g>
   </g>
   <g id="matplotlib.axis_2">
    <g id="ytick_1">
     <g id="line2d_7">
      <defs>
       <path id="mf2ae84a5f9" d="M 0 0 
L -3.5 0 
" style="stroke: #000000; stroke-width: 0.8"/>
      </defs>
      <g>
       <use xlink:href="#mf2ae84a5f9" x="54.47" y="504.070909" style="stroke: #000000; stroke-width: 0.8"/>
      </g>
     </g>
     <g id="text_8">
      <!-- 0.0 -->
      <g transform="translate(28.38625 508.629972) scale(0.12 -0.12)">
       <use xlink:href="#DejaVuSans-30"/>
       <use xlink:href="#DejaVuSans-2e" transform="translate(63.623047 0)"/>
       <use xlink:href="#DejaVuSans-30" transform="translate(95.410156 0)"/>
      </g>
     </g>
    </g>
    <g id="ytick_2">
     <g id="line2d_8">
      <g>
       <use xlink:href="#mf2ae84a5f9" x="54.47" y="410.114545" style="stroke: #000000; stroke-width: 0.8"/>
      </g>
     </g>
     <g id="text_9">
      <!-- 0.2 -->
      <g transform="translate(28.38625 414.673608) scale(0.12 -0.12)">
       <use xlink:href="#DejaVuSans-30"/>
       <use xlink:href="#DejaVuSans-2e" transform="translate(63.623047 0)"/>
       <use xlink:href="#DejaVuSans-32" transform="translate(95.410156 0)"/>
      </g>
     </g>
    </g>
    <g id="ytick_3">
     <g id="line2d_9">
      <g>
       <use xlink:href="#mf2ae84a5f9" x="54.47" y="316.158182" style="stroke: #000000; stroke-width: 0.8"/>
      </g>
     </g>
     <g id="text_10">
      <!-- 0.4 -->
      <g transform="translate(28.38625 320.717244) scale(0.12 -0.12)">
       <use xlink:href="#DejaVuSans-30"/>
       <use xlink:href="#DejaVuSans-2e" transform="translate(63.623047 0)"/>
       <use xlink:href="#DejaVuSans-34" transform="translate(95.410156 0)"/>
      </g>
     </g>
    </g>
    <g id="ytick_4">
     <g id="line2d_10">
      <g>
       <use xlink:href="#mf2ae84a5f9" x="54.47" y="222.201818" style="stroke: #000000; stroke-width: 0.8"/>
      </g>
     </g>
     <g id="text_11">
      <!-- 0.6 -->
      <g transform="translate(28.38625 226.760881) scale(0.12 -0.12)">
       <use xlink:href="#DejaVuSans-30"/>
       <use xlink:href="#DejaVuSans-2e" transform="translate(63.623047 0)"/>
       <use xlink:href="#DejaVuSans-36" transform="translate(95.410156 0)"/>
      </g>
     </g>
    </g>
    <g id="ytick_5">
     <g id="line2d_11">
      <g>
       <use xlink:href="#mf2ae84a5f9" x="54.47" y="128.245455" style="stroke: #000000; stroke-width: 0.8"/>
      </g>
     </g>
     <g id="text_12">
      <!-- 0.8 -->
      <g transform="translate(28.38625 132.804517) scale(0.12 -0.12)">
       <use xlink:href="#DejaVuSans-30"/>
       <use xlink:href="#DejaVuSans-2e" transform="translate(63.623047 0)"/>
       <use xlink:href="#DejaVuSans-38" transform="translate(95.410156 0)"/>
      </g>
     </g>
    </g>
    <g id="ytick_6">
     <g id="line2d_12">
      <g>
       <use xlink:href="#mf2ae84a5f9" x="54.47" y="34.289091" style="stroke: #000000; stroke-width: 0.8"/>
      </g>
     </g>
     <g id="text_13">
      <!-- 1.0 -->
      <g transform="translate(28.38625 38.848153) scale(0.12 -0.12)">
       <use xlink:href="#DejaVuSans-31"/>
       <use xlink:href="#DejaVuSans-2e" transform="translate(63.623047 0)"/>
       <use xlink:href="#DejaVuSans-30" transform="translate(95.410156 0)"/>
      </g>
     </g>
    </g>
    <g id="text_14">
     <!-- True Positive Rate -->
     <g transform="translate(21.474687 331.521563) rotate(-90) scale(0.14 -0.14)">
      <defs>
       <path id="DejaVuSans-54" d="M -19 4666 
L 3928 4666 
L 3928 4134 
L 2272 4134 
L 2272 0 
L 1638 0 
L 1638 4134 
L -19 4134 
L -19 4666 
z
" transform="scale(0.015625)"/>
       <path id="DejaVuSans-72" d="M 2631 2963 
Q 2534 3019 2420 3045 
Q 2306 3072 2169 3072 
Q 1681 3072 1420 2755 
Q 1159 2438 1159 1844 
L 1159 0 
L 581 0 
L 581 3500 
L 1159 3500 
L 1159 2956 
Q 1341 3275 1631 3429 
Q 1922 3584 2338 3584 
Q 2397 3584 2469 3576 
Q 2541 3569 2628 3553 
L 2631 2963 
z
" transform="scale(0.015625)"/>
       <path id="DejaVuSans-75" d="M 544 1381 
L 544 3500 
L 1119 3500 
L 1119 1403 
Q 1119 906 1312 657 
Q 1506 409 1894 409 
Q 2359 409 2629 706 
Q 2900 1003 2900 1516 
L 2900 3500 
L 3475 3500 
L 3475 0 
L 2900 0 
L 2900 538 
Q 2691 219 2414 64 
Q 2138 -91 1772 -91 
Q 1169 -91 856 284 
Q 544 659 544 1381 
z
M 1991 3584 
L 1991 3584 
z
" transform="scale(0.015625)"/>
      </defs>
      <use xlink:href="#DejaVuSans-54"/>
      <use xlink:href="#DejaVuSans-72" transform="translate(46.333984 0)"/>
      <use xlink:href="#DejaVuSans-75" transform="translate(87.447266 0)"/>
      <use xlink:href="#DejaVuSans-65" transform="translate(150.826172 0)"/>
      <use xlink:href="#DejaVuSans-20" transform="translate(212.349609 0)"/>
      <use xlink:href="#DejaVuSans-50" transform="translate(244.136719 0)"/>
      <use xlink:href="#DejaVuSans-6f" transform="translate(300.814453 0)"/>
      <use xlink:href="#DejaVuSans-73" transform="translate(361.996094 0)"/>
      <use xlink:href="#DejaVuSans-69" transform="translate(414.095703 0)"/>
      <use xlink:href="#DejaVuSans-74" transform="translate(441.878906 0)"/>
      <use xlink:href="#DejaVuSans-69" transform="translate(481.087891 0)"/>
      <use xlink:href="#DejaVuSans-76" transform="translate(508.871094 0)"/>
      <use xlink:href="#DejaVuSans-65" transform="translate(568.050781 0)"/>
      <use xlink:href="#DejaVuSans-20" transform="translate(629.574219 0)"/>
      <use xlink:href="#DejaVuSans-52" transform="translate(661.361328 0)"/>
      <use xlink:href="#DejaVuSans-61" transform="translate(728.59375 0)"/>
      <use xlink:href="#DejaVuSans-74" transform="translate(789.873047 0)"/>
      <use xlink:href="#DejaVuSans-65" transform="translate(829.082031 0)"/>
     </g>
    </g>
   </g>
   <g id="line2d_13">
    <path d="M 84.230455 504.070909 
L 84.230455 181.044668 
L 84.345872 181.044668 
L 84.345872 177.491926 
L 84.46129 177.491926 
L 84.46129 175.032335 
L 84.692125 175.032335 
L 84.692125 173.939183 
L 84.807543 173.939183 
L 84.807543 153.169307 
L 84.922961 153.169307 
L 84.922961 152.076155 
L 85.153796 152.076155 
L 85.153796 151.256292 
L 85.269214 151.256292 
L 85.269214 149.616565 
L 85.384632 149.616565 
L 85.384632 149.069989 
L 85.500049 149.069989 
L 85.500049 147.70355 
L 85.615467 147.70355 
L 85.615467 85.120631 
L 86.769644 85.120631 
L 86.769644 84.574056 
L 87.000479 84.574056 
L 87.000479 84.300768 
L 88.385492 84.300768 
L 88.385492 83.207616 
L 88.616327 83.207616 
L 88.616327 82.661041 
L 88.731745 82.661041 
L 88.731745 82.387753 
L 88.847163 82.387753 
L 88.847163 78.288435 
L 90.232175 78.288435 
L 90.232175 78.015147 
L 91.50177 78.015147 
L 91.50177 77.741859 
L 92.655947 77.741859 
L 92.655947 77.468572 
L 93.579288 77.468572 
L 93.579288 77.195284 
L 94.387212 77.195284 
L 94.387212 76.921996 
L 94.964301 76.921996 
L 94.964301 76.648708 
L 95.310554 76.648708 
L 95.310554 76.37542 
L 98.311414 76.37542 
L 98.311414 76.102132 
L 99.350174 76.102132 
L 99.350174 75.828844 
L 99.581009 75.828844 
L 99.581009 75.555557 
L 100.388933 75.555557 
L 100.388933 75.008981 
L 100.619768 75.008981 
L 100.619768 74.735693 
L 100.735186 74.735693 
L 100.735186 74.462405 
L 104.313135 74.462405 
L 104.313135 74.189117 
L 107.891084 74.189117 
L 107.891084 73.915829 
L 108.58359 73.915829 
L 108.58359 73.642542 
L 108.699007 73.642542 
L 108.699007 73.369254 
L 108.929843 73.369254 
L 108.929843 73.095966 
L 109.160678 73.095966 
L 109.160678 72.822678 
L 110.430273 72.822678 
L 110.430273 72.54939 
L 110.661108 72.54939 
L 110.661108 72.276102 
L 111.353615 72.276102 
L 111.353615 71.182951 
L 111.58445 71.182951 
L 111.58445 70.909663 
L 111.815285 70.909663 
L 111.815285 70.636375 
L 112.276956 70.636375 
L 112.276956 70.363087 
L 113.315716 70.363087 
L 113.315716 69.816512 
L 114.008222 69.816512 
L 114.008222 69.543224 
L 114.469893 69.543224 
L 114.469893 68.996648 
L 114.700728 68.996648 
L 114.700728 68.72336 
L 114.931563 68.72336 
L 114.931563 68.176785 
L 115.162399 68.176785 
L 115.162399 67.630209 
L 116.201158 67.630209 
L 116.201158 67.356921 
L 117.239917 67.356921 
L 117.239917 67.083633 
L 117.355335 67.083633 
L 117.355335 66.810345 
L 120.12536 66.810345 
L 120.12536 66.537057 
L 123.241638 66.537057 
L 123.241638 66.26377 
L 125.088321 66.26377 
L 125.088321 65.990482 
L 128.320017 65.990482 
L 128.320017 65.717194 
L 129.589612 65.717194 
L 129.589612 65.443906 
L 130.397535 65.443906 
L 130.397535 65.170618 
L 132.013383 65.170618 
L 132.013383 64.89733 
L 132.475054 64.89733 
L 132.475054 64.624043 
L 132.70589 64.624043 
L 132.70589 64.350755 
L 133.975484 64.350755 
L 133.975484 64.077467 
L 134.66799 64.077467 
L 134.66799 63.804179 
L 135.360497 63.804179 
L 135.360497 63.530891 
L 135.475914 63.530891 
L 135.475914 63.257603 
L 136.860927 63.257603 
L 136.860927 62.984315 
L 142.400977 62.984315 
L 142.400977 62.43774 
L 142.631812 62.43774 
L 142.631812 62.164452 
L 144.824748 62.164452 
L 144.824748 61.891164 
L 147.017685 61.891164 
L 147.017685 61.344588 
L 150.018545 61.344588 
L 150.018545 61.0713 
L 150.595633 61.0713 
L 150.595633 60.798013 
L 151.980646 60.798013 
L 151.980646 60.524725 
L 153.134823 60.524725 
L 153.134823 60.251437 
L 153.365658 60.251437 
L 153.365658 59.978149 
L 158.444037 59.978149 
L 158.444037 59.704861 
L 158.559455 59.704861 
L 158.559455 59.431573 
L 160.752391 59.431573 
L 160.752391 58.884998 
L 170.447478 58.884998 
L 170.447478 58.61171 
L 172.986668 58.61171 
L 172.986668 58.338422 
L 174.140845 58.338422 
L 174.140845 58.065134 
L 174.602515 58.065134 
L 174.602515 57.791846 
L 175.87211 57.791846 
L 175.87211 57.518558 
L 176.218363 57.518558 
L 176.218363 57.245271 
L 176.449199 57.245271 
L 176.449199 56.971983 
L 176.795452 56.971983 
L 176.795452 56.698695 
L 178.642135 56.698695 
L 178.642135 56.425407 
L 179.103806 56.425407 
L 179.103806 56.152119 
L 181.181325 56.152119 
L 181.181325 55.878831 
L 181.527578 55.878831 
L 181.527578 55.332256 
L 184.297602 55.332256 
L 184.297602 55.058968 
L 185.451779 55.058968 
L 185.451779 54.78568 
L 185.798033 54.78568 
L 185.798033 54.512392 
L 186.605957 54.512392 
L 186.605957 54.239104 
L 202.071929 54.239104 
L 202.071929 53.965816 
L 218.57666 53.965816 
L 218.57666 53.692528 
L 220.654179 53.692528 
L 220.654179 53.419241 
L 223.193368 53.419241 
L 223.193368 53.145953 
L 224.578381 53.145953 
L 224.578381 52.872665 
L 224.809216 52.872665 
L 224.809216 52.326089 
L 225.386304 52.326089 
L 225.386304 52.052801 
L 225.501722 52.052801 
L 225.501722 51.779513 
L 225.732558 51.779513 
L 225.732558 51.506226 
L 226.078811 51.506226 
L 226.078811 51.232938 
L 227.925494 51.232938 
L 227.925494 50.686362 
L 228.387165 50.686362 
L 228.387165 50.413074 
L 228.964253 50.413074 
L 228.964253 49.866498 
L 232.426784 49.866498 
L 232.426784 49.593211 
L 235.889315 49.593211 
L 235.889315 49.319923 
L 237.505163 49.319923 
L 237.505163 49.046635 
L 238.774758 49.046635 
L 238.774758 48.773347 
L 239.236429 48.773347 
L 239.236429 48.500059 
L 246.969415 48.500059 
L 246.969415 48.226771 
L 250.431946 48.226771 
L 250.431946 47.953484 
L 261.050375 47.953484 
L 261.050375 47.680196 
L 261.28121 47.680196 
L 261.28121 47.406908 
L 261.396628 47.406908 
L 261.396628 47.13362 
L 263.243311 47.13362 
L 263.243311 46.860332 
L 267.398348 46.860332 
L 267.398348 46.587044 
L 268.32169 46.587044 
L 268.32169 46.313756 
L 273.284651 46.313756 
L 273.284651 46.040469 
L 276.631764 46.040469 
L 276.631764 45.767181 
L 286.673104 45.767181 
L 286.673104 45.493893 
L 291.751483 45.493893 
L 291.751483 45.220605 
L 349.344917 45.220605 
L 349.344917 42.214439 
L 350.845347 42.214439 
L 350.845347 41.667863 
L 351.076182 41.667863 
L 351.076182 41.394575 
L 356.039144 41.394575 
L 356.039144 41.121287 
L 358.578333 41.121287 
L 358.578333 40.847999 
L 360.771269 40.847999 
L 360.771269 40.574712 
L 361.348358 40.574712 
L 361.348358 40.301424 
L 366.77299 40.301424 
L 366.77299 40.028136 
L 367.003825 40.028136 
L 367.003825 39.754848 
L 390.087366 39.754848 
L 390.087366 39.48156 
L 390.433619 39.48156 
L 390.433619 39.208272 
L 393.203644 39.208272 
L 393.203644 38.934984 
L 394.357821 38.934984 
L 394.357821 38.661697 
L 406.015009 38.661697 
L 406.015009 38.388409 
L 411.785894 38.388409 
L 411.785894 38.115121 
L 416.287184 38.115121 
L 416.287184 37.841833 
L 432.330245 37.841833 
L 432.330245 37.568545 
L 432.791916 37.568545 
L 432.791916 37.295257 
L 447.565381 37.295257 
L 447.565381 37.021969 
L 451.258748 37.021969 
L 451.258748 36.748682 
L 460.261329 36.748682 
L 460.261329 36.475394 
L 465.108872 36.475394 
L 465.108872 36.202106 
L 476.188972 36.202106 
L 476.188972 35.928818 
L 478.843579 35.928818 
L 478.843579 35.65553 
L 480.459427 35.65553 
L 480.459427 35.382242 
L 537.014101 35.382242 
L 537.014101 35.108954 
L 575.794449 35.108954 
L 575.794449 34.835667 
L 646.199247 34.835667 
L 646.199247 34.562379 
L 656.933094 34.562379 
L 656.933094 34.289091 
L 679.439545 34.289091 
L 679.439545 34.289091 
" clip-path="url(#pbf6c009bc2)" style="fill: none; stroke: #1f77b4; stroke-width: 1.5; stroke-linecap: square"/>
   </g>
   <g id="line2d_14">
    <path d="M 84.230455 504.070909 
L 84.230455 503.797621 
L 84.230455 402.13454 
L 84.345872 402.13454 
L 84.345872 57.791846 
L 84.46129 57.791846 
L 84.46129 44.674029 
L 84.576708 44.674029 
L 84.576708 37.568545 
L 84.692125 37.568545 
L 84.692125 36.475394 
L 84.807543 36.475394 
L 84.807543 34.289091 
L 679.439545 34.289091 
" clip-path="url(#pbf6c009bc2)" style="fill: none; stroke: #ff7f0e; stroke-width: 1.5; stroke-linecap: square"/>
   </g>
   <g id="line2d_15">
    <path d="M 84.230455 504.070909 
L 84.230455 503.797621 
L 84.230455 47.953484 
L 84.46129 47.953484 
L 84.46129 42.214439 
L 84.576708 42.214439 
L 84.576708 38.934984 
L 84.692125 38.934984 
L 84.692125 37.568545 
L 85.038378 37.568545 
L 85.038378 34.289091 
L 679.439545 34.289091 
" clip-path="url(#pbf6c009bc2)" style="fill: none; stroke: #2ca02c; stroke-width: 1.5; stroke-linecap: square"/>
   </g>
   <g id="line2d_16">
    <path d="M 84.230455 504.070909 
L 84.345872 504.070909 
L 84.345872 484.120896 
L 84.46129 484.120896 
L 84.46129 483.57432 
L 84.576708 483.57432 
L 84.576708 446.407172 
L 84.807543 446.407172 
L 84.807543 443.674294 
L 84.922961 443.674294 
L 84.922961 442.034567 
L 85.038378 442.034567 
L 85.038378 428.096886 
L 85.153796 428.096886 
L 85.153796 409.513312 
L 85.269214 409.513312 
L 85.269214 403.227692 
L 85.384632 403.227692 
L 85.384632 398.855086 
L 85.500049 398.855086 
L 85.500049 384.644118 
L 85.615467 384.644118 
L 85.615467 308.670095 
L 85.730885 308.670095 
L 85.730885 286.533779 
L 85.846302 286.533779 
L 85.846302 188.150152 
L 85.96172 188.150152 
L 85.96172 177.491926 
L 86.077138 177.491926 
L 86.077138 166.833699 
L 86.192555 166.833699 
L 86.192555 135.952172 
L 86.307973 135.952172 
L 86.307973 129.939839 
L 86.538809 129.939839 
L 86.538809 127.206961 
L 86.654226 127.206961 
L 86.654226 110.80969 
L 86.769644 110.80969 
L 86.769644 109.716538 
L 86.885062 109.716538 
L 86.885062 107.256947 
L 87.000479 107.256947 
L 87.000479 96.872009 
L 87.115897 96.872009 
L 87.115897 94.958994 
L 87.231315 94.958994 
L 87.231315 94.685706 
L 87.346733 94.685706 
L 87.346733 93.319267 
L 87.46215 93.319267 
L 87.46215 93.045979 
L 87.577568 93.045979 
L 87.577568 83.754192 
L 87.808403 83.754192 
L 87.808403 75.008981 
L 87.923821 75.008981 
L 87.923821 72.822678 
L 88.039239 72.822678 
L 88.039239 70.909663 
L 88.154656 70.909663 
L 88.154656 70.363087 
L 88.50091 70.363087 
L 88.50091 68.996648 
L 88.616327 68.996648 
L 88.616327 67.083633 
L 88.731745 67.083633 
L 88.731745 65.443906 
L 88.847163 65.443906 
L 88.847163 64.350755 
L 88.96258 64.350755 
L 88.96258 62.43774 
L 89.077998 62.43774 
L 89.077998 60.798013 
L 89.193416 60.798013 
L 89.193416 60.524725 
L 89.308833 60.524725 
L 89.308833 60.251437 
L 89.424251 60.251437 
L 89.424251 59.978149 
L 89.539669 59.978149 
L 89.539669 58.884998 
L 89.770504 58.884998 
L 89.770504 58.065134 
L 90.00134 58.065134 
L 90.00134 57.791846 
L 90.116757 57.791846 
L 90.116757 57.245271 
L 90.232175 57.245271 
L 90.232175 55.058968 
L 90.347593 55.058968 
L 90.347593 54.78568 
L 91.155517 54.78568 
L 91.155517 50.139786 
L 91.270934 50.139786 
L 91.270934 49.046635 
L 91.386352 49.046635 
L 91.386352 47.406908 
L 91.617187 47.406908 
L 91.617187 45.220605 
L 91.732605 45.220605 
L 91.732605 44.947317 
L 92.194276 44.947317 
L 92.194276 44.674029 
L 92.309694 44.674029 
L 92.309694 43.580878 
L 92.425111 43.580878 
L 92.425111 42.761014 
L 93.348453 42.761014 
L 93.348453 41.121287 
L 93.810124 41.121287 
L 93.810124 40.301424 
L 93.925542 40.301424 
L 93.925542 40.028136 
L 97.849743 40.028136 
L 97.849743 39.754848 
L 97.965161 39.754848 
L 97.965161 38.934984 
L 98.195997 38.934984 
L 98.195997 38.661697 
L 98.311414 38.661697 
L 98.311414 38.115121 
L 98.426832 38.115121 
L 98.426832 37.841833 
L 98.54225 37.841833 
L 98.54225 37.568545 
L 104.890223 37.568545 
L 104.890223 37.021969 
L 105.236476 37.021969 
L 105.236476 36.748682 
L 105.351894 36.748682 
L 105.351894 36.202106 
L 105.467312 36.202106 
L 105.467312 35.382242 
L 105.928983 35.382242 
L 105.928983 34.562379 
L 106.159818 34.562379 
L 106.159818 34.289091 
L 679.439545 34.289091 
L 679.439545 34.289091 
" clip-path="url(#pbf6c009bc2)" style="fill: none; stroke: #d62728; stroke-width: 1.5; stroke-linecap: square"/>
   </g>
   <g id="line2d_17">
    <path d="M 84.230455 504.070909 
L 679.439545 34.289091 
" clip-path="url(#pbf6c009bc2)" style="fill: none; stroke-dasharray: 5.55,2.4; stroke-dashoffset: 0; stroke: #000000; stroke-width: 1.5"/>
   </g>
   <g id="patch_3">
    <path d="M 54.47 527.56 
L 54.47 10.8 
" style="fill: none; stroke: #000000; stroke-width: 0.8; stroke-linejoin: miter; stroke-linecap: square"/>
   </g>
   <g id="patch_4">
    <path d="M 709.2 527.56 
L 709.2 10.8 
" style="fill: none; stroke: #000000; stroke-width: 0.8; stroke-linejoin: miter; stroke-linecap: square"/>
   </g>
   <g id="patch_5">
    <path d="M 54.47 527.56 
L 709.2 527.56 
" style="fill: none; stroke: #000000; stroke-width: 0.8; stroke-linejoin: miter; stroke-linecap: square"/>
   </g>
   <g id="patch_6">
    <path d="M 54.47 10.8 
L 709.2 10.8 
" style="fill: none; stroke: #000000; stroke-width: 0.8; stroke-linejoin: miter; stroke-linecap: square"/>
   </g>
   <g id="legend_1">
    <g id="patch_7">
     <path d="M 536.431875 521.56 
L 700.8 521.56 
Q 703.2 521.56 703.2 519.16 
L 703.2 449.905 
Q 703.2 447.505 700.8 447.505 
L 536.431875 447.505 
Q 534.031875 447.505 534.031875 449.905 
L 534.031875 519.16 
Q 534.031875 521.56 536.431875 521.56 
z
" style="fill: #ffffff; opacity: 0.8; stroke: #cccccc; stroke-linejoin: miter"/>
    </g>
    <g id="line2d_18">
     <path d="M 538.831875 457.223125 
L 550.831875 457.223125 
L 562.831875 457.223125 
" style="fill: none; stroke: #1f77b4; stroke-width: 1.5; stroke-linecap: square"/>
    </g>
    <g id="text_15">
     <!-- Class 1 (AUC = 0.98) -->
     <g transform="translate(572.431875 461.423125) scale(0.12 -0.12)">
      <defs>
       <path id="DejaVuSans-43" d="M 4122 4306 
L 4122 3641 
Q 3803 3938 3442 4084 
Q 3081 4231 2675 4231 
Q 1875 4231 1450 3742 
Q 1025 3253 1025 2328 
Q 1025 1406 1450 917 
Q 1875 428 2675 428 
Q 3081 428 3442 575 
Q 3803 722 4122 1019 
L 4122 359 
Q 3791 134 3420 21 
Q 3050 -91 2638 -91 
Q 1578 -91 968 557 
Q 359 1206 359 2328 
Q 359 3453 968 4101 
Q 1578 4750 2638 4750 
Q 3056 4750 3426 4639 
Q 3797 4528 4122 4306 
z
" transform="scale(0.015625)"/>
       <path id="DejaVuSans-28" d="M 1984 4856 
Q 1566 4138 1362 3434 
Q 1159 2731 1159 2009 
Q 1159 1288 1364 580 
Q 1569 -128 1984 -844 
L 1484 -844 
Q 1016 -109 783 600 
Q 550 1309 550 2009 
Q 550 2706 781 3412 
Q 1013 4119 1484 4856 
L 1984 4856 
z
" transform="scale(0.015625)"/>
       <path id="DejaVuSans-41" d="M 2188 4044 
L 1331 1722 
L 3047 1722 
L 2188 4044 
z
M 1831 4666 
L 2547 4666 
L 4325 0 
L 3669 0 
L 3244 1197 
L 1141 1197 
L 716 0 
L 50 0 
L 1831 4666 
z
" transform="scale(0.015625)"/>
       <path id="DejaVuSans-55" d="M 556 4666 
L 1191 4666 
L 1191 1831 
Q 1191 1081 1462 751 
Q 1734 422 2344 422 
Q 2950 422 3222 751 
Q 3494 1081 3494 1831 
L 3494 4666 
L 4128 4666 
L 4128 1753 
Q 4128 841 3676 375 
Q 3225 -91 2344 -91 
Q 1459 -91 1007 375 
Q 556 841 556 1753 
L 556 4666 
z
" transform="scale(0.015625)"/>
       <path id="DejaVuSans-3d" d="M 678 2906 
L 4684 2906 
L 4684 2381 
L 678 2381 
L 678 2906 
z
M 678 1631 
L 4684 1631 
L 4684 1100 
L 678 1100 
L 678 1631 
z
" transform="scale(0.015625)"/>
       <path id="DejaVuSans-39" d="M 703 97 
L 703 672 
Q 941 559 1184 500 
Q 1428 441 1663 441 
Q 2288 441 2617 861 
Q 2947 1281 2994 2138 
Q 2813 1869 2534 1725 
Q 2256 1581 1919 1581 
Q 1219 1581 811 2004 
Q 403 2428 403 3163 
Q 403 3881 828 4315 
Q 1253 4750 1959 4750 
Q 2769 4750 3195 4129 
Q 3622 3509 3622 2328 
Q 3622 1225 3098 567 
Q 2575 -91 1691 -91 
Q 1453 -91 1209 -44 
Q 966 3 703 97 
z
M 1959 2075 
Q 2384 2075 2632 2365 
Q 2881 2656 2881 3163 
Q 2881 3666 2632 3958 
Q 2384 4250 1959 4250 
Q 1534 4250 1286 3958 
Q 1038 3666 1038 3163 
Q 1038 2656 1286 2365 
Q 1534 2075 1959 2075 
z
" transform="scale(0.015625)"/>
       <path id="DejaVuSans-29" d="M 513 4856 
L 1013 4856 
Q 1481 4119 1714 3412 
Q 1947 2706 1947 2009 
Q 1947 1309 1714 600 
Q 1481 -109 1013 -844 
L 513 -844 
Q 928 -128 1133 580 
Q 1338 1288 1338 2009 
Q 1338 2731 1133 3434 
Q 928 4138 513 4856 
z
" transform="scale(0.015625)"/>
      </defs>
      <use xlink:href="#DejaVuSans-43"/>
      <use xlink:href="#DejaVuSans-6c" transform="translate(69.824219 0)"/>
      <use xlink:href="#DejaVuSans-61" transform="translate(97.607422 0)"/>
      <use xlink:href="#DejaVuSans-73" transform="translate(158.886719 0)"/>
      <use xlink:href="#DejaVuSans-73" transform="translate(210.986328 0)"/>
      <use xlink:href="#DejaVuSans-20" transform="translate(263.085938 0)"/>
      <use xlink:href="#DejaVuSans-31" transform="translate(294.873047 0)"/>
      <use xlink:href="#DejaVuSans-20" transform="translate(358.496094 0)"/>
      <use xlink:href="#DejaVuSans-28" transform="translate(390.283203 0)"/>
      <use xlink:href="#DejaVuSans-41" transform="translate(429.296875 0)"/>
      <use xlink:href="#DejaVuSans-55" transform="translate(497.705078 0)"/>
      <use xlink:href="#DejaVuSans-43" transform="translate(570.898438 0)"/>
      <use xlink:href="#DejaVuSans-20" transform="translate(640.722656 0)"/>
      <use xlink:href="#DejaVuSans-3d" transform="translate(672.509766 0)"/>
      <use xlink:href="#DejaVuSans-20" transform="translate(756.298828 0)"/>
      <use xlink:href="#DejaVuSans-30" transform="translate(788.085938 0)"/>
      <use xlink:href="#DejaVuSans-2e" transform="translate(851.708984 0)"/>
      <use xlink:href="#DejaVuSans-39" transform="translate(883.496094 0)"/>
      <use xlink:href="#DejaVuSans-38" transform="translate(947.119141 0)"/>
      <use xlink:href="#DejaVuSans-29" transform="translate(1010.742188 0)"/>
     </g>
    </g>
    <g id="line2d_19">
     <path d="M 538.831875 474.836875 
L 550.831875 474.836875 
L 562.831875 474.836875 
" style="fill: none; stroke: #ff7f0e; stroke-width: 1.5; stroke-linecap: square"/>
    </g>
    <g id="text_16">
     <!-- Class 2 (AUC = 1.00) -->
     <g transform="translate(572.431875 479.036875) scale(0.12 -0.12)">
      <use xlink:href="#DejaVuSans-43"/>
      <use xlink:href="#DejaVuSans-6c" transform="translate(69.824219 0)"/>
      <use xlink:href="#DejaVuSans-61" transform="translate(97.607422 0)"/>
      <use xlink:href="#DejaVuSans-73" transform="translate(158.886719 0)"/>
      <use xlink:href="#DejaVuSans-73" transform="translate(210.986328 0)"/>
      <use xlink:href="#DejaVuSans-20" transform="translate(263.085938 0)"/>
      <use xlink:href="#DejaVuSans-32" transform="translate(294.873047 0)"/>
      <use xlink:href="#DejaVuSans-20" transform="translate(358.496094 0)"/>
      <use xlink:href="#DejaVuSans-28" transform="translate(390.283203 0)"/>
      <use xlink:href="#DejaVuSans-41" transform="translate(429.296875 0)"/>
      <use xlink:href="#DejaVuSans-55" transform="translate(497.705078 0)"/>
      <use xlink:href="#DejaVuSans-43" transform="translate(570.898438 0)"/>
      <use xlink:href="#DejaVuSans-20" transform="translate(640.722656 0)"/>
      <use xlink:href="#DejaVuSans-3d" transform="translate(672.509766 0)"/>
      <use xlink:href="#DejaVuSans-20" transform="translate(756.298828 0)"/>
      <use xlink:href="#DejaVuSans-31" transform="translate(788.085938 0)"/>
      <use xlink:href="#DejaVuSans-2e" transform="translate(851.708984 0)"/>
      <use xlink:href="#DejaVuSans-30" transform="translate(883.496094 0)"/>
      <use xlink:href="#DejaVuSans-30" transform="translate(947.119141 0)"/>
      <use xlink:href="#DejaVuSans-29" transform="translate(1010.742188 0)"/>
     </g>
    </g>
    <g id="line2d_20">
     <path d="M 538.831875 492.450625 
L 550.831875 492.450625 
L 562.831875 492.450625 
" style="fill: none; stroke: #2ca02c; stroke-width: 1.5; stroke-linecap: square"/>
    </g>
    <g id="text_17">
     <!-- Class 3 (AUC = 1.00) -->
     <g transform="translate(572.431875 496.650625) scale(0.12 -0.12)">
      <defs>
       <path id="DejaVuSans-33" d="M 2597 2516 
Q 3050 2419 3304 2112 
Q 3559 1806 3559 1356 
Q 3559 666 3084 287 
Q 2609 -91 1734 -91 
Q 1441 -91 1130 -33 
Q 819 25 488 141 
L 488 750 
Q 750 597 1062 519 
Q 1375 441 1716 441 
Q 2309 441 2620 675 
Q 2931 909 2931 1356 
Q 2931 1769 2642 2001 
Q 2353 2234 1838 2234 
L 1294 2234 
L 1294 2753 
L 1863 2753 
Q 2328 2753 2575 2939 
Q 2822 3125 2822 3475 
Q 2822 3834 2567 4026 
Q 2313 4219 1838 4219 
Q 1578 4219 1281 4162 
Q 984 4106 628 3988 
L 628 4550 
Q 988 4650 1302 4700 
Q 1616 4750 1894 4750 
Q 2613 4750 3031 4423 
Q 3450 4097 3450 3541 
Q 3450 3153 3228 2886 
Q 3006 2619 2597 2516 
z
" transform="scale(0.015625)"/>
      </defs>
      <use xlink:href="#DejaVuSans-43"/>
      <use xlink:href="#DejaVuSans-6c" transform="translate(69.824219 0)"/>
      <use xlink:href="#DejaVuSans-61" transform="translate(97.607422 0)"/>
      <use xlink:href="#DejaVuSans-73" transform="translate(158.886719 0)"/>
      <use xlink:href="#DejaVuSans-73" transform="translate(210.986328 0)"/>
      <use xlink:href="#DejaVuSans-20" transform="translate(263.085938 0)"/>
      <use xlink:href="#DejaVuSans-33" transform="translate(294.873047 0)"/>
      <use xlink:href="#DejaVuSans-20" transform="translate(358.496094 0)"/>
      <use xlink:href="#DejaVuSans-28" transform="translate(390.283203 0)"/>
      <use xlink:href="#DejaVuSans-41" transform="translate(429.296875 0)"/>
      <use xlink:href="#DejaVuSans-55" transform="translate(497.705078 0)"/>
      <use xlink:href="#DejaVuSans-43" transform="translate(570.898438 0)"/>
      <use xlink:href="#DejaVuSans-20" transform="translate(640.722656 0)"/>
      <use xlink:href="#DejaVuSans-3d" transform="translate(672.509766 0)"/>
      <use xlink:href="#DejaVuSans-20" transform="translate(756.298828 0)"/>
      <use xlink:href="#DejaVuSans-31" transform="translate(788.085938 0)"/>
      <use xlink:href="#DejaVuSans-2e" transform="translate(851.708984 0)"/>
      <use xlink:href="#DejaVuSans-30" transform="translate(883.496094 0)"/>
      <use xlink:href="#DejaVuSans-30" transform="translate(947.119141 0)"/>
      <use xlink:href="#DejaVuSans-29" transform="translate(1010.742188 0)"/>
     </g>
    </g>
    <g id="line2d_21">
     <path d="M 538.831875 510.064375 
L 550.831875 510.064375 
L 562.831875 510.064375 
" style="fill: none; stroke: #d62728; stroke-width: 1.5; stroke-linecap: square"/>
    </g>
    <g id="text_18">
     <!-- Class 4 (AUC = 1.00) -->
     <g transform="translate(572.431875 514.264375) scale(0.12 -0.12)">
      <use xlink:href="#DejaVuSans-43"/>
      <use xlink:href="#DejaVuSans-6c" transform="translate(69.824219 0)"/>
      <use xlink:href="#DejaVuSans-61" transform="translate(97.607422 0)"/>
      <use xlink:href="#DejaVuSans-73" transform="translate(158.886719 0)"/>
      <use xlink:href="#DejaVuSans-73" transform="translate(210.986328 0)"/>
      <use xlink:href="#DejaVuSans-20" transform="translate(263.085938 0)"/>
      <use xlink:href="#DejaVuSans-34" transform="translate(294.873047 0)"/>
      <use xlink:href="#DejaVuSans-20" transform="translate(358.496094 0)"/>
      <use xlink:href="#DejaVuSans-28" transform="translate(390.283203 0)"/>
      <use xlink:href="#DejaVuSans-41" transform="translate(429.296875 0)"/>
      <use xlink:href="#DejaVuSans-55" transform="translate(497.705078 0)"/>
      <use xlink:href="#DejaVuSans-43" transform="translate(570.898438 0)"/>
      <use xlink:href="#DejaVuSans-20" transform="translate(640.722656 0)"/>
      <use xlink:href="#DejaVuSans-3d" transform="translate(672.509766 0)"/>
      <use xlink:href="#DejaVuSans-20" transform="translate(756.298828 0)"/>
      <use xlink:href="#DejaVuSans-31" transform="translate(788.085938 0)"/>
      <use xlink:href="#DejaVuSans-2e" transform="translate(851.708984 0)"/>
      <use xlink:href="#DejaVuSans-30" transform="translate(883.496094 0)"/>
      <use xlink:href="#DejaVuSans-30" transform="translate(947.119141 0)"/>
      <use xlink:href="#DejaVuSans-29" transform="translate(1010.742188 0)"/>
     </g>
    </g>
   </g>
  </g>
 </g>
 <defs>
  <clipPath id="pbf6c009bc2">
   <rect x="54.47" y="10.8" width="654.73" height="516.76"/>
  </clipPath>
 </defs>
</svg>
